<?xml version="1.0" encoding="utf-8"?>
<svg viewBox="75.916 32.264 744.829 577.814" xmlns="http://www.w3.org/2000/svg">
  <defs/>
  <path d="M 286.227 539.257 C 284.068 539.356 282.611 537.081 283.605 535.162 C 283.754 534.873 283.953 534.612 284.192 534.391 L 284.384 533.626 C 284.359 533.565 284.334 533.504 284.308 533.442 C 282.045 528.098 274.846 527.207 271.349 531.839 C 270.964 532.348 270.646 532.904 270.401 533.494 C 268.127 538.972 265.231 544.46 264.518 550.252 C 264.204 552.812 264.336 555.407 264.909 557.922 C 259.567 546.269 256.793 533.603 256.775 520.784 C 256.774 517.567 256.953 514.352 257.311 511.155 C 257.606 508.535 258.016 505.932 258.541 503.349 C 261.404 489.331 267.552 476.192 276.479 465.012 C 280.8 462.654 284.294 459.029 286.491 454.624 C 287.287 453.041 287.849 451.351 288.161 449.606 C 287.674 449.67 286.323 442.247 286.691 441.792 C 286.012 440.761 284.796 440.249 284.054 439.243 C 280.365 434.241 275.282 435.114 272.628 441.912 C 266.959 444.773 266.904 449.517 270.383 454.081 C 272.596 456.984 272.9 460.913 274.841 464.021 C 274.641 464.276 274.434 464.524 274.234 464.78 C 270.582 469.475 267.4 474.517 264.732 479.834 C 265.381 473.878 264.606 467.853 262.472 462.255 C 260.31 457.038 256.256 452.644 252.686 448.133 C 248.398 442.716 239.606 445.08 238.851 451.948 C 238.843 452.014 238.836 452.081 238.829 452.147 C 239.359 452.446 239.878 452.764 240.386 453.1 C 242.824 454.728 242.584 458.385 239.955 459.681 C 239.607 459.853 239.235 459.97 238.851 460.03 L 238.773 460.042 C 238.962 461.953 239.296 463.846 239.772 465.707 C 235.192 483.417 245.079 489.867 259.196 490.157 C 259.508 490.317 259.812 490.477 260.123 490.628 C 257.443 498.225 255.761 506.138 255.121 514.168 C 254.759 518.905 254.78 523.664 255.185 528.398 L 255.161 528.231 C 254.138 522.966 251.33 518.216 247.211 514.783 C 241.093 509.757 232.449 507.906 225.848 503.866 C 223.017 502.049 219.28 503.978 219.121 507.338 C 219.109 507.599 219.12 507.86 219.154 508.118 C 219.163 508.177 219.172 508.236 219.181 508.295 C 220.165 508.696 221.123 509.157 222.05 509.677 C 222.58 509.976 223.099 510.294 223.607 510.63 C 226.044 512.258 225.804 515.915 223.175 517.211 C 222.827 517.383 222.455 517.5 222.071 517.56 L 221.994 517.572 C 221.938 517.58 221.89 517.588 221.834 517.596 C 223.515 521.61 225.875 525.305 228.809 528.518 C 231.673 543.978 243.971 545.445 257.127 540.943 L 257.135 540.943 C 258.578 547.215 260.67 553.321 263.375 559.161 L 285.668 559.161 C 285.748 558.913 285.82 558.657 285.892 558.41 C 283.828 558.539 281.757 558.416 279.723 558.042 C 281.377 556.013 283.031 553.967 284.685 551.938 C 284.722 551.9 284.757 551.86 284.789 551.818 C 285.628 550.779 286.475 549.748 287.314 548.71 L 287.315 548.708 C 287.359 545.524 286.994 542.348 286.227 539.257 L 286.227 539.257 Z" fill="#f2f2f2"/>
  <polygon points="114.758 505.539 120.909 512.04 149.47 490.88 140.392 481.285 114.758 505.539" fill="#a0616a"/>
  <path d="M 124.837 509.135 L 117.873 502.593 L 116.163 500.991 L 98.435 515.164 L 103.047 520.038 L 108.475 516.557 L 105.982 523.14 L 118.208 536.063 C 120.324 538.301 124.068 537.41 124.948 534.459 C 125.118 533.891 125.159 533.293 125.069 532.707 L 122.43 515.635 L 127.08 511.238 L 124.837 509.135 Z" fill="#2f2e41"/>
  <path d="M 249.94 268.837 L 247.989 290.127 C 247.989 290.127 244.585 306.167 246.942 304.867 C 249.299 303.567 245.073 309.419 246.186 314.493 C 247.299 319.567 236.679 357.407 241.489 353.487 C 246.3 349.567 238.71 376.647 233.909 390.007 C 232.44 394.137 230.929 398.317 229.409 402.467 C 229.11 403.308 228.809 404.137 228.5 404.977 C 226.529 410.377 224.559 415.697 222.67 420.717 C 222.4 421.417 222.139 422.117 221.88 422.808 C 221.869 422.827 221.869 422.847 221.86 422.847 C 215.639 439.217 210.309 452.097 208.179 454.227 C 207.07 455.337 189.46 468.058 171.71 480.797 C 153.08 494.167 134.3 507.567 134.3 507.567 L 116.76 489.167 C 116.76 489.167 117.179 489.047 117.97 488.808 C 119.43 488.387 122.13 487.597 125.67 486.547 C 140.43 482.197 121.68 475.427 135.08 470.587 C 138.86 469.227 141.38 468.167 141.95 467.607 C 145.28 464.357 149.75 456.607 151.86 459.857 C 153.97 463.107 163.54 438.957 166.3 436.567 C 167.78 435.277 172.61 429.247 176.75 423.947 C 180.309 419.387 183.369 415.357 183.369 415.357 C 183.369 415.357 183.43 413.197 183.519 409.757 C 183.65 404.667 183.84 396.757 184.04 388.837 C 184.03 388.827 184.03 388.827 184.04 388.827 C 184.11 385.847 184.18 382.867 184.25 380.037 C 184.3 377.847 184.349 375.737 184.4 373.787 C 184.53 367.947 184.62 363.527 184.62 362.427 C 184.62 358.817 184.62 361.627 187.47 359.447 C 187.895 359.113 188.299 358.752 188.68 358.367 C 189.289 357.819 189.851 357.22 190.36 356.577 C 190.57 356.127 189.26 356.737 187.559 356.397 C 186.639 356.213 185.787 355.776 185.099 355.137 C 181.519 351.917 185.38 342.018 185.38 342.018 C 177.24 325.737 177.83 312.387 181.64 302.097 C 184.488 294.713 189.01 288.09 194.85 282.747 C 197.072 280.63 199.493 278.731 202.08 277.077 L 202.33 275.727 L 205.08 260.837 C 206.542 260.034 208.063 259.342 209.63 258.768 C 214.514 257.015 219.755 256.493 224.889 257.248 C 229.992 257.986 234.932 259.585 239.5 261.978 C 243.233 263.853 246.736 266.155 249.94 268.837 Z" fill="#2f2e41"/>
  <polygon points="173.136 538.709 182.047 539.538 189.556 504.794 176.403 503.571 173.136 538.709" fill="#a0616a"/>
  <path d="M 198.8 552.327 L 185.559 541.237 L 186.159 534.857 L 183.08 534.757 L 173.54 534.447 L 173.53 534.447 L 171.19 534.367 L 167.22 556.707 L 173.909 557.327 L 175.679 551.127 L 178.15 557.727 L 181.69 558.058 L 195.86 559.377 C 195.98 559.387 196.11 559.397 196.23 559.397 C 197.369 559.399 198.455 558.911 199.21 558.058 C 199.79 557.422 200.145 556.614 200.219 555.757 C 200.338 554.45 199.808 553.168 198.8 552.327 Z" fill="#2f2e41"/>
  <path d="M 222.67 420.717 C 219.28 439.167 204.929 482.427 196.25 507.748 C 192.3 519.317 189.54 527.147 189.54 527.147 L 185.04 525.727 L 185.029 525.727 L 177.42 523.327 L 174.65 522.447 L 174.639 522.447 L 171.279 521.377 C 171.279 521.377 171.67 500.717 171.71 480.797 C 171.739 472.447 171.699 464.217 171.54 457.697 C 171.36 450.587 171.05 445.498 170.54 444.487 C 168.429 440.347 171.96 439.907 175.69 438.867 C 179.429 437.817 176.509 436.237 175.059 432.877 C 174.08 430.637 176.009 427.647 177.38 425.947 C 177.758 425.469 178.162 425.011 178.59 424.577 C 178.59 424.577 177.929 424.347 176.75 423.947 C 180.309 419.387 183.369 415.357 183.369 415.357 C 183.369 415.357 183.429 413.197 183.519 409.757 C 183.65 404.667 183.84 396.757 184.04 388.837 C 184.03 388.827 184.03 388.827 184.04 388.827 C 184.11 385.847 184.179 382.867 184.25 380.037 C 189.97 384.427 195.53 388.727 200.57 392.707 C 200.582 392.717 200.589 392.732 200.59 392.747 C 212.699 402.317 221.79 409.997 223.07 412.437 C 223.65 413.537 223.449 416.477 222.67 420.717 Z" fill="#2f2e41"/>
  <path d="M 520.798 94.95 C 524.264 94.626 527.359 97.121 527.777 100.577 C 527.813 100.915 527.82 101.256 527.8 101.596 L 548.422 110.402 L 547.635 122.438 L 520.69 107.321 C 517.806 106.92 515.555 104.627 515.207 101.737 C 514.835 98.37 517.263 95.339 520.63 94.966 C 520.686 94.96 520.742 94.955 520.798 94.95 Z" fill="#ffb6b6"/>
  <path d="M 661.099 169.248 C 660.59 166.914 659.644 164.698 658.309 162.717 C 657.939 162.154 657.535 161.613 657.099 161.097 C 655.48 159.167 653.969 157.397 652.57 155.817 C 651.719 154.827 650.889 153.907 650.11 153.058 C 645.58 148.087 642.61 145.458 641.25 145.237 C 640.59 145.127 639.94 145.047 639.309 144.967 C 636.08 144.567 633.739 144.277 633.67 140.867 C 633.663 140.379 633.696 139.89 633.769 139.407 C 633.891 138.596 634.068 137.794 634.3 137.007 C 634.433 136.561 634.536 136.107 634.61 135.647 C 634.71 135.058 634.67 134.617 634.349 134.347 C 633.949 134.018 633.279 134.067 632.019 134.567 C 631.82 134.647 631.59 134.737 631.349 134.847 C 631.269 134.877 631.19 134.917 631.099 134.957 C 630.94 135.027 630.759 135.107 630.58 135.197 C 629.07 135.917 626.739 136.007 624.08 135.737 C 616.23 134.937 605.61 130.977 605.48 130.927 L 538.599 104.937 L 537.98 105.937 L 536.51 108.317 L 536 109.137 L 535.42 110.077 L 532.889 114.157 L 531.61 116.217 L 553.21 132.507 L 555.559 134.277 L 557.58 135.808 L 598.82 166.917 L 614.199 177.067 L 617.63 179.327 L 632.25 188.967 C 641.103 194.817 653.037 192.213 658.65 183.207 C 661.246 179.048 662.124 174.042 661.099 169.248 Z" fill="#e6e6e6"/>
  <path d="M 756.846 560.056 L 36.115 560.056 C 35.346 560.056 34.864 559.222 35.249 558.556 C 35.428 558.246 35.758 558.056 36.115 558.056 L 756.846 558.056 C 757.616 558.056 758.097 558.889 757.712 559.556 C 757.533 559.865 757.203 560.056 756.846 560.056 Z" fill="#e6e6e6"/>
  <polygon points="200.031 232.849 201.905 250.231 200.803 273.023 251.288 267.026 256.031 232.849 249.987 232.909 200.031 232.849" fill="#ffb6b6"/>
  <path d="M 242.973 176.707 L 223.973 161.707 L 214 161.127 L 199.2 170.608 L 195.577 189.095 L 187.006 209.913 L 199.577 266.095 C 199.577 266.095 200.756 270.127 197.666 270.611 C 194.577 271.095 194.947 277.038 194.947 277.038 C 194.947 277.038 195.576 282.188 192.576 282.641 C 189.576 283.095 181.577 283.095 188.577 292.095 C 195.577 301.095 250.942 267.056 250.942 267.056 L 258.984 224.861 C 258.984 224.861 274.579 203.915 257.784 191.919 L 242.973 176.707 Z" fill="#e6e6e6"/>
  <path d="M 160.03 304.265 C 156.464 299.817 157.787 293.227 162.793 290.498 L 186.692 210.293 L 201.636 217.817 L 175.609 294.692 C 178.582 301.126 173.475 308.366 166.417 307.724 C 163.904 307.495 161.595 306.245 160.03 304.265 L 160.03 304.265 Z" fill="#a0616a"/>
  <path d="M 202.633 169.866 C 202.633 169.866 198.361 167.595 195.439 177.42 C 193.099 185.285 174.118 232.132 173.876 243.522 C 170.663 244.203 168.319 246.974 168.18 250.256 L 191.649 253.401 C 195.75 249.942 196.825 245.27 195.239 243.884 L 200.334 229.967 L 221.593 185.687 L 205.75 171.452 L 202.633 169.866 Z" fill="#e6e6e6"/>
  <path d="M 328.034 277.902 C 329.324 272.349 325.282 266.979 319.588 266.684 L 264.765 204.07 L 253.135 217.947 L 309.846 276.008 C 309.948 283.095 317.683 287.414 323.77 283.782 C 325.937 282.489 327.478 280.364 328.034 277.902 L 328.034 277.902 Z" fill="#a0616a"/>
  <path d="M 231.5 175.142 C 231.5 175.142 234.37 171.248 241.253 178.842 C 246.763 184.923 284.137 218.955 289.281 229.12 C 292.473 228.345 295.784 229.829 297.329 232.728 L 277.528 245.713 C 272.335 244.368 269.344 240.621 270.175 238.684 L 259.562 228.339 L 221.246 197.607 L 229.375 177.92 L 231.5 175.142 Z" fill="#e6e6e6"/>
  <circle cx="435.943" cy="207.056" r="140" fill="#3d9970"/>
  <path d="M 557.58 135.808 C 551.7 125.822 544.624 116.59 536.51 108.317 C 534.699 106.477 532.83 104.677 530.92 102.927 C 529.86 101.957 528.79 101.007 527.699 100.077 C 525.63 98.297 523.5 96.577 521.33 94.917 C 496.816 76.166 466.803 66.023 435.94 66.058 C 358.199 66.058 294.94 129.308 294.94 207.058 C 294.936 215.631 295.716 224.186 297.269 232.617 C 297.272 232.664 297.279 232.711 297.29 232.757 C 298 236.627 298.88 240.447 299.9 244.197 C 328.482 348.9 459.69 383.398 536.074 306.294 C 543.507 298.791 550.074 290.476 555.65 281.507 C 557.599 278.367 559.433 275.147 561.15 271.847 C 583.407 228.898 582.059 177.53 557.58 135.808 Z M 435.94 346.058 C 359.161 346.084 296.913 283.836 296.94 207.058 C 296.94 130.407 359.3 68.058 435.94 68.058 C 473.409 68.079 509.281 83.231 535.42 110.077 C 538.794 113.522 541.979 117.147 544.96 120.937 C 547.911 124.646 550.665 128.508 553.21 132.507 C 574.67 166.221 580.573 207.544 569.409 245.917 C 568.179 250.157 566.739 254.308 565.119 258.377 C 563.489 262.457 561.679 266.457 559.679 270.337 C 535.837 316.73 488.1 345.942 435.94 346.058 Z" fill="#3f3d56"/>
  <polygon points="627.752 539.027 618.561 538.949 614.492 502.67 628.058 502.785 627.752 539.027" fill="#ffb6b6"/>
  <path d="M 630.19 534.787 L 627.79 534.627 L 618 533.957 L 614.849 533.747 L 614.79 540.317 L 600.11 550.277 C 597.492 552.055 597.781 556 600.63 557.377 C 601.179 557.643 601.78 557.783 602.389 557.787 L 620.659 557.937 L 623.86 551.457 L 625.03 557.977 L 631.929 558.037 L 630.19 534.787 Z" fill="#2f2e41"/>
  <polygon points="724.523 532.311 715.738 535.012 700.908 501.654 713.875 497.668 724.523 532.311" fill="#ffb6b6"/>
  <path d="M 725.569 527.537 L 723.229 528.107 L 713.7 530.417 L 710.63 531.167 L 712.559 537.457 L 701.569 551.377 C 699.611 553.869 701.084 557.545 704.22 557.995 C 704.412 558.023 704.606 558.037 704.8 558.037 C 705.206 558.036 705.611 557.976 706 557.857 L 723.469 552.487 L 724.559 545.337 L 727.649 551.197 L 734.24 549.167 L 725.569 527.537 Z" fill="#2f2e41"/>
  <path d="M 609.264 233.973 L 591.724 284.947 L 591.145 289.026 C 586.725 293.223 592.277 294.605 590.195 295.712 C 588.114 296.818 586.713 299.92 589.519 300.475 C 592.324 301.029 601.369 499.848 613.3 507.567 C 625.23 515.287 632.491 520.871 630.3 509.567 C 629.417 505.013 630.665 480.595 632.471 453.059 C 632.676 449.939 635.91 446.636 633.105 443.601 C 630.3 440.567 633.45 438.571 633.626 436.053 C 636.143 400.096 639.048 364.597 639.048 364.597 C 639.048 364.597 657.643 428.454 662.471 423.511 C 667.3 418.567 665.388 430.738 666.864 434.375 C 668.097 437.415 662.836 443.384 670.568 443.476 C 678.3 443.567 696.457 505.638 698.3 505.567 C 701.949 505.428 712.208 505.821 718.3 504.567 C 721.308 503.948 707.954 456.955 696.803 416.375 C 695.914 413.138 691.074 413.063 694.187 406.815 C 697.3 400.567 681.812 360.141 683.141 358.271 C 686.669 353.309 688.012 351.152 684.533 350.827 C 681.055 350.502 680.027 352.41 679.839 347.596 C 679.651 342.782 679.051 330.911 679.051 330.911 C 679.051 330.911 676.531 283.962 658.885 258.023 L 657.38 242.611 L 609.264 233.973 Z" fill="#2f2e41"/>
  <path d="M 653.084 136.651 L 629.824 139.963 L 628.42 156.807 L 616.942 174.762 C 616.942 174.762 591.428 192.717 609.222 221.08 C 602.45 245.513 595.718 268.945 589.3 284.567 C 584.3 315.567 629.093 318.539 680.3 307.567 C 680.3 307.567 679.594 294.312 674.947 287.94 C 670.3 281.567 672.829 280.176 672.829 280.176 L 669.582 268.271 C 671.42 251.062 665.215 249.518 662.299 241.567 L 671.152 159.073 L 653.084 136.651 Z" fill="#e6e6e6"/>
  <path d="M 541.42 280.843 C 541.933 277.4 545.094 274.99 548.55 275.409 C 548.887 275.455 549.22 275.529 549.545 275.63 L 563.019 257.706 L 574.519 261.343 L 553.407 283.901 C 552.33 286.606 549.566 288.245 546.676 287.892 C 543.318 287.45 540.954 284.369 541.396 281.01 C 541.403 280.954 541.411 280.899 541.42 280.843 Z" fill="#ffb6b6"/>
  <path d="M 661.099 169.248 C 660.769 168.837 660.409 168.437 660.03 168.047 C 654.624 162.476 646.353 160.792 639.199 163.808 C 638.86 163.947 638.519 164.107 638.19 164.268 C 626.239 170.137 619.79 174.047 619.01 175.877 C 618.74 176.498 618.51 177.107 618.28 177.697 C 618.059 178.277 617.849 178.827 617.63 179.327 C 616.71 181.467 615.65 182.797 612.949 182.197 C 612.054 181.978 611.19 181.646 610.38 181.207 C 610.009 181.027 609.67 180.837 609.349 180.657 C 608.19 180.018 607.349 179.558 606.78 179.978 C 606.23 180.387 606.21 181.427 606.71 183.837 C 606.875 184.843 606.848 185.871 606.63 186.867 C 605.968 189.772 604.933 192.579 603.55 195.217 C 601.477 199.353 599.145 203.354 596.57 207.197 L 572.78 241.117 L 571.17 243.407 L 569.409 245.917 L 555.369 265.937 L 556.199 266.787 L 559.679 270.337 L 560.449 271.127 L 561.15 271.847 L 562.96 273.697 L 564.659 275.427 L 602.59 244.527 L 606.82 241.077 L 614.4 234.897 L 629.929 222.248 L 659.32 195.047 C 663.068 191.606 665.253 186.785 665.369 181.697 C 665.369 181.527 665.38 181.367 665.38 181.197 C 665.391 176.837 663.876 172.61 661.099 169.248 Z" fill="#e6e6e6"/>
  <circle cx="639.12" cy="110.047" r="25.992" fill="#ffb6b6"/>
  <path d="M 673.565 146.088 C 677.053 151.08 679.386 156.787 680.396 162.793 C 677.585 164.591 674.312 165.536 670.975 165.512 C 670.862 165.075 670.748 164.638 670.619 164.201 C 669.652 160.817 668.213 157.586 666.345 154.602 C 666.601 157.819 666.165 161.054 665.067 164.088 C 663.303 163.287 661.413 162.799 659.482 162.647 C 657.909 162.647 656.357 163.013 654.95 163.716 C 653.315 158.293 651.809 153.307 650.741 149.73 C 650.709 158.698 637.565 166.516 623.223 165.383 C 622.705 165.059 627.901 150.313 627.399 149.973 C 626.25 149.212 625.133 148.387 624.016 147.577 C 628.711 140.325 633.809 132.556 632.935 131.39 C 633 132.831 627.853 139.759 622.252 146.298 C 619.144 144.016 636.804 106.883 628.079 103.872 C 627.934 105.183 626.007 105.183 623.66 104.908 C 623.041 102.745 622.12 100.68 620.925 98.773 C 621.08 100.694 620.849 102.626 620.245 104.455 C 617.927 104.456 615.616 104.7 613.349 105.183 C 612.825 104.358 612.246 103.569 611.617 102.82 C 611.679 103.732 611.652 104.649 611.536 105.556 C 609.221 106.057 607.311 106.64 607.036 107.11 C 605.223 106.446 608.315 103.451 607.182 101.897 C 604.301 98.013 608.574 92.347 611.277 88.333 C 616.829 80.11 629.018 77.261 637.646 82.198 C 638.034 80.854 640.025 79.964 642.583 79.365 C 643.667 79.126 644.776 79.023 645.885 79.057 C 656.892 79.252 672.173 88.333 672.772 99.324 C 672.82 100.424 672.901 101.622 672.982 102.901 C 673.759 115.203 672.804 126.55 681.205 135.55 C 684.248 138.804 684.281 154.214 683.115 162.145 C 680.088 158.957 677.935 146.557 673.565 146.088 Z" fill="#2f2e41"/>
  <circle cx="387.3" cy="207.567" r="3" fill="#3d9970"/>
  <circle cx="482.3" cy="205.567" r="3" fill="#3d9970"/>
  <path d="M 196.73 120.854 C 194.447 126.54 188.006 137.722 187.133 143.822 L 187.526 143.436 C 188.275 144.716 189.126 145.933 190.071 147.075 C 191.765 145.296 193.811 143.89 196.078 142.945 C 194.84 145.485 194.123 148.248 193.969 151.07 C 196.4 158.689 207.637 155.296 214.221 154.464 C 220.796 161.985 229.544 163.947 240.998 159.624 C 244.202 159.953 247.788 160.154 250.033 158.261 C 252.278 156.368 250.941 152.862 252.149 150.21 C 260.752 131.323 252.813 124.509 246.067 115.945 C 244.582 114.06 244.588 111.248 242.782 109.45 C 240.276 106.957 236.434 106.191 232.892 105.577 C 234.763 105.675 236.55 104.791 237.607 103.243 C 238.536 101.68 238.512 99.728 237.543 98.189 C 236.276 96.089 233.644 94.868 231.104 94.562 C 228.602 94.393 226.089 94.609 223.652 95.203 C 222.074 95.411 220.546 95.899 219.14 96.645 C 217.781 97.37 217.015 98.862 217.217 100.388 C 217.646 101.783 218.687 102.905 220.046 103.437 C 221.068 103.869 222.144 104.164 223.244 104.312 C 218.191 103.657 213.058 104.555 208.528 106.888 C 202.852 109.916 199.021 115.171 196.73 120.854 Z" fill="#2f2e41"/>
  <circle cx="227.469" cy="132.44" r="20.293" fill="#a0616a"/>
  <path d="M 207.942 121.559 C 209.119 125.115 212.481 126.261 215.589 126.976 C 216.569 127.204 217.555 127.417 218.55 127.606 C 218.917 127.147 219.307 126.698 219.715 126.272 C 221.409 124.494 223.455 123.087 225.722 122.142 C 224.742 124.149 224.09 126.3 223.792 128.513 C 225.671 128.786 227.56 129.009 229.46 129.182 C 232.797 129.892 236.106 127.862 236.985 124.564 C 238.714 127.392 240.759 130.055 243.555 131.179 C 246.837 132.358 250.505 131.261 252.601 128.473 C 254.213 126.257 255.331 123.721 255.879 121.036 C 256.672 117.887 257.113 114.26 255.555 112.262 C 254.307 110.645 252.154 110.616 250.167 110.759 C 245.782 111.095 241.444 111.882 237.22 113.106 L 236.862 113.91 C 237.588 109.55 236.014 105.354 233.1 103.862 C 231.135 102.864 228.771 103.031 226.474 103.234 C 223.524 103.365 220.608 103.929 217.822 104.907 C 214.625 106.137 211.886 108.324 209.979 111.17 C 207.94 114.266 206.927 118.488 207.942 121.559 Z" fill="#2f2e41"/>
  <path d="M 236.871 102.593 C 236.671 102.534 237.19 102.609 237.01 102.614 C 237.099 102.609 237.188 102.597 237.276 102.577 C 237.29 102.574 237.492 102.51 237.358 102.557 C 237.66 102.467 237.929 102.291 238.132 102.052 C 238.609 101.462 238.983 100.797 239.238 100.083 C 239.561 99.14 240.079 98.276 240.76 97.547 C 241.59 96.713 242.992 96.927 243.536 97.971 C 243.793 98.907 243.705 99.904 243.288 100.781 C 242.997 101.673 242.564 102.512 242.006 103.266 C 241.071 104.5 239.797 105.435 238.34 105.957 C 236.653 106.569 234.813 106.622 233.094 106.106 C 232.193 105.733 232.035 104.523 232.809 103.93 C 232.882 103.874 232.961 103.826 233.044 103.787 L 235.911 102.614 C 236.795 102.224 237.77 102.939 237.664 103.899 C 237.616 104.345 237.333 104.731 236.922 104.912 L 234.055 106.085 L 234.004 103.766 C 234.362 103.869 234.73 103.932 235.102 103.954 C 235.498 103.994 235.899 103.977 236.291 103.904 C 236.666 103.854 237.035 103.765 237.39 103.635 C 237.618 103.552 237.842 103.457 238.06 103.352 C 238.139 103.313 238.218 103.273 238.296 103.232 C 238.29 103.235 238.624 103.04 238.478 103.132 C 238.848 102.895 239.196 102.624 239.517 102.322 C 239.63 102.215 239.734 102.099 239.828 101.975 C 239.992 101.775 240.143 101.565 240.282 101.346 C 240.564 100.884 240.788 100.388 240.948 99.871 C 241.021 99.653 241.082 99.432 241.132 99.208 C 241.146 99.085 241.168 98.963 241.199 98.843 C 241.305 98.558 241.179 99.01 241.301 99.134 L 241.829 99.523 C 242.03 99.583 242.248 99.548 242.42 99.429 C 242.483 99.341 242.469 99.355 242.379 99.473 C 242.274 99.611 242.179 99.755 242.092 99.905 C 241.903 100.259 241.731 100.622 241.579 100.993 C 241.263 101.782 240.865 102.535 240.389 103.24 C 239.434 104.701 237.648 105.384 235.961 104.933 C 235.319 104.677 235.001 103.954 235.246 103.308 C 235.508 102.672 236.226 102.356 236.871 102.593 Z" fill="#2f2e41"/>
  <rect x="292.759" y="189.303" width="157.091" height="35.065" style="stroke: rgb(255, 255, 255); fill: rgb(255, 255, 255);"/>
</svg>